<svg width="16" height="16" viewBox="0 0 16 16" fill="none" xmlns="http://www.w3.org/2000/svg">
<g clip-path="url(#clip0_126_1627)">
<path d="M4 6.37521C4 6.60254 4.09031 6.82056 4.25105 6.98131C4.4118 7.14205 4.62981 7.23236 4.85714 7.23236C5.08447 7.23236 5.30249 7.14205 5.46323 6.98131C5.62398 6.82056 5.71429 6.60254 5.71429 6.37521C5.71429 6.14789 5.62398 5.92987 5.46323 5.76912C5.30249 5.60838 5.08447 5.51807 4.85714 5.51807C4.62981 5.51807 4.4118 5.60838 4.25105 5.76912C4.09031 5.92987 4 6.14789 4 6.37521ZM10.2857 6.37521C10.2857 6.60254 10.376 6.82056 10.5368 6.98131C10.6975 7.14205 10.9155 7.23236 11.1429 7.23236C11.3702 7.23236 11.5882 7.14205 11.7489 6.98131C11.9097 6.82056 12 6.60254 12 6.37521C12 6.14789 11.9097 5.92987 11.7489 5.76912C11.5882 5.60838 11.3702 5.51807 11.1429 5.51807C10.9155 5.51807 10.6975 5.60838 10.5368 5.76912C10.376 5.92987 10.2857 6.14789 10.2857 6.37521ZM8 0.000213623C3.58214 0.000213623 0 3.58236 0 8.00021C0 12.4181 3.58214 16.0002 8 16.0002C12.4179 16.0002 16 12.4181 16 8.00021C16 3.58236 12.4179 0.000213623 8 0.000213623ZM12.6964 12.6966C12.0857 13.3074 11.375 13.7859 10.5839 14.1216C9.76786 14.4681 8.89821 14.6431 8 14.6431C7.10179 14.6431 6.23214 14.4681 5.41429 14.1216C4.62441 13.7881 3.90693 13.3041 3.30179 12.6966C2.69107 12.0859 2.2125 11.3752 1.87679 10.5841C1.53214 9.76807 1.35714 8.89843 1.35714 8.00021C1.35714 7.102 1.53214 6.23236 1.87857 5.4145C2.21216 4.62463 2.69614 3.90715 3.30357 3.302C3.91429 2.69129 4.625 2.21271 5.41607 1.877C6.23214 1.53236 7.10179 1.35736 8 1.35736C8.89821 1.35736 9.76786 1.53236 10.5857 1.87879C11.3756 2.21237 12.0931 2.69635 12.6982 3.30379C13.3089 3.9145 13.7875 4.62521 14.1232 5.41629C14.4679 6.23236 14.6429 7.102 14.6429 8.00021C14.6429 8.89843 14.4679 9.76807 14.1214 10.5859C13.7882 11.3755 13.3042 12.0925 12.6964 12.6966ZM10.7143 8.37521H9.85536C9.78036 8.37521 9.71607 8.43236 9.71071 8.50736C9.64286 9.39129 8.90179 10.0895 8 10.0895C7.09821 10.0895 6.35536 9.39129 6.28929 8.50736C6.28393 8.43236 6.21964 8.37521 6.14464 8.37521H5.28571C5.26634 8.37519 5.24716 8.37911 5.22934 8.38673C5.21153 8.39435 5.19545 8.40552 5.18209 8.41955C5.16872 8.43358 5.15836 8.45018 5.15161 8.46835C5.14487 8.48651 5.14189 8.50586 5.14286 8.52521C5.22143 10.0306 6.47321 11.2324 8 11.2324C9.52679 11.2324 10.7786 10.0306 10.8571 8.52521C10.8581 8.50586 10.8551 8.48651 10.8484 8.46835C10.8416 8.45018 10.8313 8.43358 10.8179 8.41955C10.8046 8.40552 10.7885 8.39435 10.7707 8.38673C10.7528 8.37911 10.7337 8.37519 10.7143 8.37521Z" fill="white"/>
</g>
<defs>
<clipPath id="clip0_126_1627">
<rect width="16" height="16" fill="white"/>
</clipPath>
</defs>
</svg>
